<svg width="520" height="533" viewBox="0 0 520 533" fill="none" xmlns="http://www.w3.org/2000/svg">
<rect x="0.5" y="0.5" width="519" height="532" rx="4.5" stroke="#9747FF" stroke-dasharray="10 5"/>
<mask id="path-2-inside-1_1_289" fill="white">
<path d="M20 20H500V120H20V20Z"/>
</mask>
<path d="M20 20H500V120H20V20Z" fill="#17181D"/>
<path d="M500 120V121H501V120H500ZM499 20V120H501V20H499ZM500 119H20V121H500V119Z" fill="#383A41" mask="url(#path-2-inside-1_1_289)"/>
<g clip-path="url(#clip0_1_289)">
<g clip-path="url(#clip1_1_289)">
<path d="M182.986 40H125.995C125.262 40 124.66 40.596 124.66 41.3374V98.6655C124.66 99.3926 125.262 100 125.995 100H182.986C183.736 100 184.344 99.3926 184.344 98.6655V41.3374C184.344 40.596 183.733 40 182.986 40Z" fill="white"/>
</g>
<path d="M200.696 72.936L193.78 60.532H197.784L201.816 67.98C202.124 68.54 202.32 68.988 202.544 69.492C202.796 68.988 202.908 68.652 203.272 67.98L207.276 60.532H211.168L204.28 72.936V81H200.696V72.936ZM209.491 74.056C209.491 69.744 212.599 66.776 216.883 66.776C221.167 66.776 224.275 69.744 224.275 74.056C224.275 78.368 221.167 81.336 216.883 81.336C212.599 81.336 209.491 78.368 209.491 74.056ZM212.907 74.056C212.907 76.576 214.531 78.284 216.883 78.284C219.235 78.284 220.859 76.576 220.859 74.056C220.859 71.536 219.235 69.828 216.883 69.828C214.531 69.828 212.907 71.536 212.907 74.056ZM236.035 67.168H239.451V81H236.287L236.035 79.152C235.195 80.468 233.403 81.364 231.555 81.364C228.363 81.364 226.487 79.208 226.487 75.82V67.168H229.903V74.616C229.903 77.248 230.939 78.312 232.843 78.312C234.999 78.312 236.035 77.052 236.035 74.42V67.168ZM251.659 67.112V70.276H250.399C247.935 70.276 246.395 71.592 246.395 74.28V81H242.979V67.196H246.199L246.395 69.212C246.983 67.84 248.299 66.916 250.147 66.916C250.623 66.916 251.099 66.972 251.659 67.112ZM265.606 60.532V77.696H274.174V81H262.022V60.532H265.606ZM275.499 74.056C275.499 69.744 278.607 66.776 282.891 66.776C287.175 66.776 290.283 69.744 290.283 74.056C290.283 78.368 287.175 81.336 282.891 81.336C278.607 81.336 275.499 78.368 275.499 74.056ZM278.915 74.056C278.915 76.576 280.539 78.284 282.891 78.284C285.243 78.284 286.867 76.576 286.867 74.056C286.867 71.536 285.243 69.828 282.891 69.828C280.539 69.828 278.915 71.536 278.915 74.056ZM292.207 73.776C292.207 69.744 294.839 66.72 298.787 66.72C300.859 66.72 302.483 67.588 303.295 69.072L303.491 67.168H306.655V80.3C306.655 84.92 303.883 87.804 299.403 87.804C295.427 87.804 292.711 85.536 292.291 81.84H295.707C295.931 83.632 297.303 84.696 299.403 84.696C301.755 84.696 303.267 83.212 303.267 80.916V78.62C302.399 79.908 300.691 80.72 298.703 80.72C294.783 80.72 292.207 77.78 292.207 73.776ZM295.651 73.692C295.651 76.016 297.135 77.752 299.375 77.752C301.727 77.752 303.183 76.1 303.183 73.692C303.183 71.34 301.755 69.716 299.375 69.716C297.107 69.716 295.651 71.424 295.651 73.692ZM309.378 74.056C309.378 69.744 312.486 66.776 316.77 66.776C321.054 66.776 324.162 69.744 324.162 74.056C324.162 78.368 321.054 81.336 316.77 81.336C312.486 81.336 309.378 78.368 309.378 74.056ZM312.794 74.056C312.794 76.576 314.418 78.284 316.77 78.284C319.122 78.284 320.746 76.576 320.746 74.056C320.746 71.536 319.122 69.828 316.77 69.828C314.418 69.828 312.794 71.536 312.794 74.056ZM338.504 81H334.92V60.532H338.504V68.988H347.576V60.532H351.16V81H347.576V72.32H338.504V81ZM361.386 81.364C357.27 81.364 354.386 78.368 354.386 74.084C354.386 69.744 357.214 66.748 361.274 66.748C365.418 66.748 368.05 69.52 368.05 73.832V74.868L357.634 74.896C357.886 77.332 359.174 78.564 361.442 78.564C363.318 78.564 364.55 77.836 364.942 76.52H368.106C367.518 79.544 364.998 81.364 361.386 81.364ZM361.302 69.548C359.286 69.548 358.054 70.64 357.718 72.712H364.662C364.662 70.808 363.346 69.548 361.302 69.548ZM379.464 67.112V70.276H378.204C375.74 70.276 374.2 71.592 374.2 74.28V81H370.784V67.196H374.004L374.2 69.212C374.788 67.84 376.104 66.916 377.952 66.916C378.428 66.916 378.904 66.972 379.464 67.112ZM387.499 81.364C383.383 81.364 380.499 78.368 380.499 74.084C380.499 69.744 383.327 66.748 387.387 66.748C391.531 66.748 394.163 69.52 394.163 73.832V74.868L383.747 74.896C383.999 77.332 385.287 78.564 387.555 78.564C389.431 78.564 390.663 77.836 391.055 76.52H394.219C393.631 79.544 391.111 81.364 387.499 81.364ZM387.415 69.548C385.399 69.548 384.167 70.64 383.831 72.712H390.775C390.775 70.808 389.459 69.548 387.415 69.548Z" fill="white"/>
</g>
<mask id="path-6-inside-2_1_289" fill="white">
<path d="M20 151H500V251H20V151Z"/>
</mask>
<path d="M20 151H500V251H20V151Z" fill="#FAFAFA"/>
<path d="M499 151V251H501V151H499Z" fill="#383A41" mask="url(#path-6-inside-2_1_289)"/>
<g clip-path="url(#clip2_1_289)">
<g clip-path="url(#clip3_1_289)">
<path d="M182.986 171H125.995C125.262 171 124.66 171.596 124.66 172.337V229.665C124.66 230.393 125.262 231 125.995 231H182.986C183.736 231 184.344 230.393 184.344 229.665V172.337C184.344 171.596 183.733 171 182.986 171Z" fill="#1E1E1E"/>
</g>
<path d="M200.696 203.936L193.78 191.532H197.784L201.816 198.98C202.124 199.54 202.32 199.988 202.544 200.492C202.796 199.988 202.908 199.652 203.272 198.98L207.276 191.532H211.168L204.28 203.936V212H200.696V203.936ZM209.491 205.056C209.491 200.744 212.599 197.776 216.883 197.776C221.167 197.776 224.275 200.744 224.275 205.056C224.275 209.368 221.167 212.336 216.883 212.336C212.599 212.336 209.491 209.368 209.491 205.056ZM212.907 205.056C212.907 207.576 214.531 209.284 216.883 209.284C219.235 209.284 220.859 207.576 220.859 205.056C220.859 202.536 219.235 200.828 216.883 200.828C214.531 200.828 212.907 202.536 212.907 205.056ZM236.035 198.168H239.451V212H236.287L236.035 210.152C235.195 211.468 233.403 212.364 231.555 212.364C228.363 212.364 226.487 210.208 226.487 206.82V198.168H229.903V205.616C229.903 208.248 230.939 209.312 232.843 209.312C234.999 209.312 236.035 208.052 236.035 205.42V198.168ZM251.659 198.112V201.276H250.399C247.935 201.276 246.395 202.592 246.395 205.28V212H242.979V198.196H246.199L246.395 200.212C246.983 198.84 248.299 197.916 250.147 197.916C250.623 197.916 251.099 197.972 251.659 198.112ZM265.606 191.532V208.696H274.174V212H262.022V191.532H265.606ZM275.499 205.056C275.499 200.744 278.607 197.776 282.891 197.776C287.175 197.776 290.283 200.744 290.283 205.056C290.283 209.368 287.175 212.336 282.891 212.336C278.607 212.336 275.499 209.368 275.499 205.056ZM278.915 205.056C278.915 207.576 280.539 209.284 282.891 209.284C285.243 209.284 286.867 207.576 286.867 205.056C286.867 202.536 285.243 200.828 282.891 200.828C280.539 200.828 278.915 202.536 278.915 205.056ZM292.207 204.776C292.207 200.744 294.839 197.72 298.787 197.72C300.859 197.72 302.483 198.588 303.295 200.072L303.491 198.168H306.655V211.3C306.655 215.92 303.883 218.804 299.403 218.804C295.427 218.804 292.711 216.536 292.291 212.84H295.707C295.931 214.632 297.303 215.696 299.403 215.696C301.755 215.696 303.267 214.212 303.267 211.916V209.62C302.399 210.908 300.691 211.72 298.703 211.72C294.783 211.72 292.207 208.78 292.207 204.776ZM295.651 204.692C295.651 207.016 297.135 208.752 299.375 208.752C301.727 208.752 303.183 207.1 303.183 204.692C303.183 202.34 301.755 200.716 299.375 200.716C297.107 200.716 295.651 202.424 295.651 204.692ZM309.378 205.056C309.378 200.744 312.486 197.776 316.77 197.776C321.054 197.776 324.162 200.744 324.162 205.056C324.162 209.368 321.054 212.336 316.77 212.336C312.486 212.336 309.378 209.368 309.378 205.056ZM312.794 205.056C312.794 207.576 314.418 209.284 316.77 209.284C319.122 209.284 320.746 207.576 320.746 205.056C320.746 202.536 319.122 200.828 316.77 200.828C314.418 200.828 312.794 202.536 312.794 205.056ZM338.504 212H334.92V191.532H338.504V199.988H347.576V191.532H351.16V212H347.576V203.32H338.504V212ZM361.386 212.364C357.27 212.364 354.386 209.368 354.386 205.084C354.386 200.744 357.214 197.748 361.274 197.748C365.418 197.748 368.05 200.52 368.05 204.832V205.868L357.634 205.896C357.886 208.332 359.174 209.564 361.442 209.564C363.318 209.564 364.55 208.836 364.942 207.52H368.106C367.518 210.544 364.998 212.364 361.386 212.364ZM361.302 200.548C359.286 200.548 358.054 201.64 357.718 203.712H364.662C364.662 201.808 363.346 200.548 361.302 200.548ZM379.464 198.112V201.276H378.204C375.74 201.276 374.2 202.592 374.2 205.28V212H370.784V198.196H374.004L374.2 200.212C374.788 198.84 376.104 197.916 377.952 197.916C378.428 197.916 378.904 197.972 379.464 198.112ZM387.499 212.364C383.383 212.364 380.499 209.368 380.499 205.084C380.499 200.744 383.327 197.748 387.387 197.748C391.531 197.748 394.163 200.52 394.163 204.832V205.868L383.747 205.896C383.999 208.332 385.287 209.564 387.555 209.564C389.431 209.564 390.663 208.836 391.055 207.52H394.219C393.631 210.544 391.111 212.364 387.499 212.364ZM387.415 200.548C385.399 200.548 384.167 201.64 383.831 203.712H390.775C390.775 201.808 389.459 200.548 387.415 200.548Z" fill="#1E1E1E"/>
</g>
<mask id="path-10-inside-3_1_289" fill="white">
<path d="M20 282H410V382H20V282Z"/>
</mask>
<path d="M20 282H410V382H20V282Z" fill="#17181D"/>
<path d="M410 381H20V383H410V381Z" fill="#383A41" mask="url(#path-10-inside-3_1_289)"/>
<g clip-path="url(#clip4_1_289)">
<g clip-path="url(#clip5_1_289)">
<path d="M81.487 329.5H41.0599C40.5401 329.5 40.1133 329.927 40.1133 330.458V371.544C40.1133 372.065 40.5401 372.5 41.0599 372.5H81.487C82.019 372.5 82.4499 372.065 82.4499 371.544V330.458C82.4499 329.927 82.017 329.5 81.487 329.5Z" fill="white"/>
</g>
<path d="M98.4775 349.768L91.5615 337.364H95.5655L99.5975 344.812C99.9055 345.372 100.102 345.82 100.326 346.324C100.578 345.82 100.69 345.484 101.054 344.812L105.058 337.364H108.95L102.062 349.768V357.832H98.4775V349.768Z" fill="white"/>
<path d="M107.273 350.888C107.273 346.576 110.381 343.608 114.665 343.608C118.949 343.608 122.057 346.576 122.057 350.888C122.057 355.2 118.949 358.168 114.665 358.168C110.381 358.168 107.273 355.2 107.273 350.888ZM110.689 350.888C110.689 353.408 112.313 355.116 114.665 355.116C117.017 355.116 118.641 353.408 118.641 350.888C118.641 348.368 117.017 346.66 114.665 346.66C112.313 346.66 110.689 348.368 110.689 350.888Z" fill="white"/>
<path d="M133.816 344H137.232V357.832H134.068L133.816 355.984C132.976 357.3 131.184 358.196 129.336 358.196C126.144 358.196 124.268 356.04 124.268 352.652V344H127.684V351.448C127.684 354.08 128.72 355.144 130.624 355.144C132.78 355.144 133.816 353.884 133.816 351.252V344Z" fill="white"/>
<path d="M149.44 343.944V347.108H148.18C145.716 347.108 144.176 348.424 144.176 351.112V357.832H140.76V344.028H143.98L144.176 346.044C144.764 344.672 146.08 343.748 147.928 343.748C148.404 343.748 148.88 343.804 149.44 343.944Z" fill="white"/>
<path d="M163.387 337.364V354.528H171.955V357.832H159.803V337.364H163.387Z" fill="white"/>
<path d="M173.28 350.888C173.28 346.576 176.388 343.608 180.672 343.608C184.956 343.608 188.064 346.576 188.064 350.888C188.064 355.2 184.956 358.168 180.672 358.168C176.388 358.168 173.28 355.2 173.28 350.888ZM176.696 350.888C176.696 353.408 178.32 355.116 180.672 355.116C183.024 355.116 184.648 353.408 184.648 350.888C184.648 348.368 183.024 346.66 180.672 346.66C178.32 346.66 176.696 348.368 176.696 350.888Z" fill="white"/>
<path d="M189.988 350.608C189.988 346.576 192.62 343.552 196.568 343.552C198.64 343.552 200.264 344.42 201.076 345.904L201.272 344H204.436V357.132C204.436 361.752 201.664 364.636 197.184 364.636C193.208 364.636 190.492 362.368 190.072 358.672H193.488C193.712 360.464 195.084 361.528 197.184 361.528C199.536 361.528 201.048 360.044 201.048 357.748V355.452C200.18 356.74 198.472 357.552 196.484 357.552C192.564 357.552 189.988 354.612 189.988 350.608ZM193.432 350.524C193.432 352.848 194.916 354.584 197.156 354.584C199.508 354.584 200.964 352.932 200.964 350.524C200.964 348.172 199.536 346.548 197.156 346.548C194.888 346.548 193.432 348.256 193.432 350.524Z" fill="white"/>
<path d="M207.159 350.888C207.159 346.576 210.267 343.608 214.551 343.608C218.835 343.608 221.943 346.576 221.943 350.888C221.943 355.2 218.835 358.168 214.551 358.168C210.267 358.168 207.159 355.2 207.159 350.888ZM210.575 350.888C210.575 353.408 212.199 355.116 214.551 355.116C216.903 355.116 218.527 353.408 218.527 350.888C218.527 348.368 216.903 346.66 214.551 346.66C212.199 346.66 210.575 348.368 210.575 350.888Z" fill="white"/>
<path d="M236.286 357.832H232.702V337.364H236.286V345.82H245.358V337.364H248.942V357.832H245.358V349.152H236.286V357.832Z" fill="white"/>
<path d="M259.167 358.196C255.051 358.196 252.167 355.2 252.167 350.916C252.167 346.576 254.995 343.58 259.055 343.58C263.199 343.58 265.831 346.352 265.831 350.664V351.7L255.415 351.728C255.667 354.164 256.955 355.396 259.223 355.396C261.099 355.396 262.331 354.668 262.723 353.352H265.887C265.299 356.376 262.779 358.196 259.167 358.196ZM259.083 346.38C257.067 346.38 255.835 347.472 255.499 349.544H262.443C262.443 347.64 261.127 346.38 259.083 346.38Z" fill="white"/>
<path d="M277.245 343.944V347.108H275.985C273.521 347.108 271.981 348.424 271.981 351.112V357.832H268.565V344.028H271.785L271.981 346.044C272.569 344.672 273.885 343.748 275.733 343.748C276.209 343.748 276.685 343.804 277.245 343.944Z" fill="white"/>
<path d="M285.28 358.196C281.164 358.196 278.28 355.2 278.28 350.916C278.28 346.576 281.108 343.58 285.168 343.58C289.312 343.58 291.944 346.352 291.944 350.664V351.7L281.528 351.728C281.78 354.164 283.068 355.396 285.336 355.396C287.212 355.396 288.444 354.668 288.836 353.352H292C291.412 356.376 288.892 358.196 285.28 358.196ZM285.196 346.38C283.18 346.38 281.948 347.472 281.612 349.544H288.556C288.556 347.64 287.24 346.38 285.196 346.38Z" fill="white"/>
</g>
<path d="M390 355.483H366V357.066H390V355.483Z" fill="white"/>
<path d="M390 350.209H366V351.791H390V350.209Z" fill="white"/>
<path d="M390 344.934H366V346.516H390V344.934Z" fill="white"/>
<mask id="path-17-inside-4_1_289" fill="white">
<path d="M20 413H410V513H20V413Z"/>
</mask>
<path d="M20 413H410V513H20V413Z" fill="#17181D"/>
<path d="M410 512H20V514H410V512Z" fill="#383A41" mask="url(#path-17-inside-4_1_289)"/>
<g clip-path="url(#clip6_1_289)">
<g clip-path="url(#clip7_1_289)">
<path d="M81.487 460H41.0599C40.5401 460 40.1133 460.427 40.1133 460.958V502.044C40.1133 502.565 40.5401 503 41.0599 503H81.487C82.019 503 82.4499 502.565 82.4499 502.044V460.958C82.4499 460.427 82.017 460 81.487 460Z" fill="white"/>
</g>
<path d="M98.4775 480.268L91.5615 467.864H95.5655L99.5975 475.312C99.9055 475.872 100.102 476.32 100.326 476.824C100.578 476.32 100.69 475.984 101.054 475.312L105.058 467.864H108.95L102.062 480.268V488.332H98.4775V480.268Z" fill="white"/>
<path d="M107.273 481.388C107.273 477.076 110.381 474.108 114.665 474.108C118.949 474.108 122.057 477.076 122.057 481.388C122.057 485.7 118.949 488.668 114.665 488.668C110.381 488.668 107.273 485.7 107.273 481.388ZM110.689 481.388C110.689 483.908 112.313 485.616 114.665 485.616C117.017 485.616 118.641 483.908 118.641 481.388C118.641 478.868 117.017 477.16 114.665 477.16C112.313 477.16 110.689 478.868 110.689 481.388Z" fill="white"/>
<path d="M133.816 474.5H137.232V488.332H134.068L133.816 486.484C132.976 487.8 131.184 488.696 129.336 488.696C126.144 488.696 124.268 486.54 124.268 483.152V474.5H127.684V481.948C127.684 484.58 128.72 485.644 130.624 485.644C132.78 485.644 133.816 484.384 133.816 481.752V474.5Z" fill="white"/>
<path d="M149.44 474.444V477.608H148.18C145.716 477.608 144.176 478.924 144.176 481.612V488.332H140.76V474.528H143.98L144.176 476.544C144.764 475.172 146.08 474.248 147.928 474.248C148.404 474.248 148.88 474.304 149.44 474.444Z" fill="white"/>
<path d="M163.387 467.864V485.028H171.955V488.332H159.803V467.864H163.387Z" fill="white"/>
<path d="M173.28 481.388C173.28 477.076 176.388 474.108 180.672 474.108C184.956 474.108 188.064 477.076 188.064 481.388C188.064 485.7 184.956 488.668 180.672 488.668C176.388 488.668 173.28 485.7 173.28 481.388ZM176.696 481.388C176.696 483.908 178.32 485.616 180.672 485.616C183.024 485.616 184.648 483.908 184.648 481.388C184.648 478.868 183.024 477.16 180.672 477.16C178.32 477.16 176.696 478.868 176.696 481.388Z" fill="white"/>
<path d="M189.988 481.108C189.988 477.076 192.62 474.052 196.568 474.052C198.64 474.052 200.264 474.92 201.076 476.404L201.272 474.5H204.436V487.632C204.436 492.252 201.664 495.136 197.184 495.136C193.208 495.136 190.492 492.868 190.072 489.172H193.488C193.712 490.964 195.084 492.028 197.184 492.028C199.536 492.028 201.048 490.544 201.048 488.248V485.952C200.18 487.24 198.472 488.052 196.484 488.052C192.564 488.052 189.988 485.112 189.988 481.108ZM193.432 481.024C193.432 483.348 194.916 485.084 197.156 485.084C199.508 485.084 200.964 483.432 200.964 481.024C200.964 478.672 199.536 477.048 197.156 477.048C194.888 477.048 193.432 478.756 193.432 481.024Z" fill="white"/>
<path d="M207.159 481.388C207.159 477.076 210.267 474.108 214.551 474.108C218.835 474.108 221.943 477.076 221.943 481.388C221.943 485.7 218.835 488.668 214.551 488.668C210.267 488.668 207.159 485.7 207.159 481.388ZM210.575 481.388C210.575 483.908 212.199 485.616 214.551 485.616C216.903 485.616 218.527 483.908 218.527 481.388C218.527 478.868 216.903 477.16 214.551 477.16C212.199 477.16 210.575 478.868 210.575 481.388Z" fill="white"/>
<path d="M236.286 488.332H232.702V467.864H236.286V476.32H245.358V467.864H248.942V488.332H245.358V479.652H236.286V488.332Z" fill="white"/>
<path d="M259.167 488.696C255.051 488.696 252.167 485.7 252.167 481.416C252.167 477.076 254.995 474.08 259.055 474.08C263.199 474.08 265.831 476.852 265.831 481.164V482.2L255.415 482.228C255.667 484.664 256.955 485.896 259.223 485.896C261.099 485.896 262.331 485.168 262.723 483.852H265.887C265.299 486.876 262.779 488.696 259.167 488.696ZM259.083 476.88C257.067 476.88 255.835 477.972 255.499 480.044H262.443C262.443 478.14 261.127 476.88 259.083 476.88Z" fill="white"/>
<path d="M277.245 474.444V477.608H275.985C273.521 477.608 271.981 478.924 271.981 481.612V488.332H268.565V474.528H271.785L271.981 476.544C272.569 475.172 273.885 474.248 275.733 474.248C276.209 474.248 276.685 474.304 277.245 474.444Z" fill="white"/>
<path d="M285.28 488.696C281.164 488.696 278.28 485.7 278.28 481.416C278.28 477.076 281.108 474.08 285.168 474.08C289.312 474.08 291.944 476.852 291.944 481.164V482.2L281.528 482.228C281.78 484.664 283.068 485.896 285.336 485.896C287.212 485.896 288.444 485.168 288.836 483.852H292C291.412 486.876 288.892 488.696 285.28 488.696ZM285.196 476.88C283.18 476.88 281.948 477.972 281.612 480.044H288.556C288.556 478.14 287.24 476.88 285.196 476.88Z" fill="white"/>
</g>
<path d="M385.476 472.455L368.506 489.426L369.625 490.545L386.595 473.574L385.476 472.455Z" fill="white"/>
<path d="M387.196 489.525L376.67 479L375.551 480.119L386.077 490.644L387.196 489.525Z" fill="white"/>
<path d="M377.444 479.774L369.67 472L368.551 473.119L376.325 480.893L377.444 479.774Z" fill="white"/>
<defs>
<clipPath id="clip0_1_289">
<rect width="271" height="60" fill="white" transform="translate(124.5 40)"/>
</clipPath>
<clipPath id="clip1_1_289">
<rect width="60" height="60" fill="white" transform="translate(124.5 40)"/>
</clipPath>
<clipPath id="clip2_1_289">
<rect width="271" height="60" fill="white" transform="translate(124.5 171)"/>
</clipPath>
<clipPath id="clip3_1_289">
<rect width="60" height="60" fill="white" transform="translate(124.5 171)"/>
</clipPath>
<clipPath id="clip4_1_289">
<rect width="252" height="43" fill="white" transform="translate(40 329.5)"/>
</clipPath>
<clipPath id="clip5_1_289">
<rect width="42.5611" height="43" fill="white" transform="translate(40 329.5)"/>
</clipPath>
<clipPath id="clip6_1_289">
<rect width="252" height="43" fill="white" transform="translate(40 460)"/>
</clipPath>
<clipPath id="clip7_1_289">
<rect width="42.5611" height="43" fill="white" transform="translate(40 460)"/>
</clipPath>
</defs>
</svg>
